<?xml version="1.0" standalone="no"?>
<!DOCTYPE svg PUBLIC "-//W3C//DTD SVG 20010904//EN"
 "http://www.w3.org/TR/2001/REC-SVG-20010904/DTD/svg10.dtd">
<svg version="1.0" xmlns="http://www.w3.org/2000/svg"
 width="225.000000pt" height="225.000000pt" viewBox="0 0 225.000000 225.000000"
 preserveAspectRatio="xMidYMid meet">

<g transform="translate(0.000000,225.000000) scale(0.100000,-0.100000)"
fill="#000000" stroke="none">
<path d="M0 1125 l0 -1125 1125 0 1125 0 0 1125 0 1125 -1125 0 -1125 0 0
-1125z m1290 989 c85 -19 190 -72 268 -135 76 -61 96 -60 172 8 27 25 50 41
50 37 0 -19 -75 -137 -127 -199 -73 -86 -224 -214 -330 -278 l-79 -47 -39 20
c-49 25 -108 25 -162 1 l-42 -20 -91 57 c-170 106 -341 274 -410 403 -16 31
-30 60 -30 64 0 4 23 -13 50 -38 76 -68 95 -69 172 -7 170 138 374 183 598
134z m-696 -427 l48 -57 -17 -51 c-49 -146 37 -279 190 -297 l46 -5 -3 -50 -3
-51 -99 -57 c-54 -32 -102 -61 -107 -66 -4 -4 33 -31 84 -58 50 -28 108 -67
129 -89 71 -72 156 -278 243 -589 9 -32 19 -57 21 -54 2 2 22 64 43 138 82
279 149 434 220 506 20 21 78 60 128 88 51 27 88 54 84 58 -5 5 -53 34 -107
65 l-99 57 -3 51 -3 51 46 5 c153 18 239 151 190 297 l-16 50 52 66 c29 36 54
65 56 65 7 0 52 -99 68 -150 14 -44 19 -114 25 -340 6 -191 14 -315 25 -375
19 -104 65 -253 106 -343 15 -34 23 -59 16 -55 -7 4 -56 42 -109 85 -53 43
-100 78 -105 78 -4 0 -43 -59 -87 -130 l-79 -130 -87 80 -88 81 -70 -113 c-38
-62 -98 -160 -133 -216 -35 -57 -68 -104 -74 -104 -5 0 -68 95 -141 212 -72
116 -133 213 -136 213 -4 1 -44 -33 -91 -75 l-85 -77 -82 133 -82 134 -110
-89 c-60 -49 -111 -89 -113 -89 -2 0 9 29 25 65 42 94 86 237 105 345 11 63
19 188 25 375 6 221 11 291 25 335 23 73 65 155 74 144 4 -5 28 -35 55 -67z
m191 -173 c17 -12 61 -41 99 -63 l69 -40 -29 -11 c-16 -7 -55 -10 -87 -8 -73
5 -119 44 -119 101 0 63 8 65 67 21z m745 -18 c0 -44 -18 -70 -67 -95 -27 -14
-103 -14 -139 -1 -26 10 -25 11 54 59 43 26 92 57 107 69 35 28 45 21 45 -32z
m-319 -102 c42 -40 68 -111 73 -200 6 -84 14 -98 79 -125 l27 -12 -59 -53
c-78 -71 -115 -132 -163 -266 -21 -62 -41 -114 -43 -116 -1 -2 -15 34 -30 80
-15 46 -42 112 -59 148 -32 67 -123 175 -157 185 -29 9 -24 17 30 47 l48 26 6
77 c9 103 24 147 64 195 55 64 126 70 184 14z"/>
</g>
</svg>
